# xmcd CD database file
#
# Track frame offsets:
#	182
#	23095
#	42070
#	58892
#	77802
#	92592
#	127700
#	143932
#	162522
#	181852
#	195372
#	208695
#	234525
#
# Disc length: 3256 seconds
#
# Revision: 3
# Processed by: cddbd v1.5.2PL0 Copyright (c) Steve Scherf et al.
# Submitted via: CDex 1.51
#
DISCID=a50cb60d
DTITLE=Freewheelers, The - Waitin' For George
DYEAR=1996
DGENRE=Rock
TTITLE0=Best Be On Your Way
TTITLE1=What's The Matter Ruth?
TTITLE2=Mother Nature Lady
TTITLE3=Ghost Of Tchoupitoulas St.
TTITLE4=My Little Friend
TTITLE5=(Chico's Sellin') Maps To The Stars
TTITLE6=Crime Pays
TTITLE7=Walkin' Funny
TTITLE8=About Marie
TTITLE9=Kiss Her For The Punk
TTITLE10=Elevator Man
TTITLE11=Blame
TTITLE12=Let The Music Bring A Smile
EXTD=YEAR: 1996
EXTT0=
EXTT1=
EXTT2=
EXTT3=
EXTT4=
EXTT5=
EXTT6=
EXTT7=
EXTT8=
EXTT9=
EXTT10=
EXTT11=
EXTT12=
PLAYORDER=
